<?xml version="1.0" encoding="UTF-8" standalone="no"?>
<!-- Created with Inkscape (http://www.inkscape.org/) -->

<svg
   xmlns:dc="http://purl.org/dc/elements/1.1/"
   xmlns:cc="http://creativecommons.org/ns#"
   xmlns:rdf="http://www.w3.org/1999/02/22-rdf-syntax-ns#"
   xmlns:svg="http://www.w3.org/2000/svg"
   xmlns="http://www.w3.org/2000/svg"
   xmlns:sodipodi="http://sodipodi.sourceforge.net/DTD/sodipodi-0.dtd"
   xmlns:inkscape="http://www.inkscape.org/namespaces/inkscape"
   width="1920px"
   height="1080px"
   viewBox="0 0 1920 1080"
   version="1.1"
   id="SVGRoot"
   inkscape:version="0.92.1 r15371"
   sodipodi:docname="black.svg">
  <sodipodi:namedview
     id="base"
     pagecolor="#ffffff"
     bordercolor="#666666"
     borderopacity="1.0"
     inkscape:pageopacity="0.0"
     inkscape:pageshadow="2"
     inkscape:zoom="0.24748737"
     inkscape:cx="872.86862"
     inkscape:cy="525.99646"
     inkscape:document-units="px"
     inkscape:current-layer="layer1"
     showgrid="false"
     inkscape:window-width="1366"
     inkscape:window-height="715"
     inkscape:window-x="-8"
     inkscape:window-y="-8"
     inkscape:window-maximized="1"
     inkscape:snap-nodes="false"
     inkscape:snap-object-midpoints="true"
     inkscape:snap-center="true"
     inkscape:snap-bbox="true"
     inkscape:bbox-nodes="true"
     inkscape:snap-bbox-midpoints="true"
     inkscape:snap-bbox-edge-midpoints="true"
     inkscape:object-paths="true"
     inkscape:snap-intersection-paths="true"
     inkscape:snap-smooth-nodes="true"
     inkscape:snap-midpoints="true"
     showguides="false"
     inkscape:snap-others="true">
    <inkscape:grid
       type="xygrid"
       id="grid6305" />
  </sodipodi:namedview>
  <defs
     id="defs5746">
    <clipPath
       clipPathUnits="userSpaceOnUse"
       id="clipPath6319">
      <path
         style="fill:none;stroke:#000000;stroke-width:1px;stroke-linecap:butt;stroke-linejoin:miter;stroke-opacity:1"
         d="m 1440,200 40,280 h 320 l 40,-280 40,-280 h -480 z"
         id="path6321"
         inkscape:connector-curvature="0" />
    </clipPath>
  </defs>
  <metadata
     id="metadata5749">
    <rdf:RDF>
      <cc:Work
         rdf:about="">
        <dc:format>image/svg+xml</dc:format>
        <dc:type
           rdf:resource="http://purl.org/dc/dcmitype/StillImage" />
        <dc:title></dc:title>
      </cc:Work>
    </rdf:RDF>
  </metadata>
  <g
     id="layer1"
     inkscape:groupmode="layer"
     inkscape:label="Layer 1">
    <circle
       style="opacity:1;fill:none;fill-opacity:1;stroke:#000000;stroke-width:30;stroke-linecap:square;stroke-linejoin:bevel;stroke-miterlimit:4;stroke-dasharray:none;stroke-opacity:1;paint-order:markers stroke fill"
       id="path6307"
       cx="960"
       cy="520"
       r="440" />
    <path
       style="fill:none;fill-opacity:1;stroke:#000000;stroke-width:30;stroke-linecap:square;stroke-linejoin:miter;stroke-miterlimit:4;stroke-dasharray:none;stroke-opacity:1"
       d="M 960,880 720,640 h 480 z"
       id="path6309"
       inkscape:connector-curvature="0"
       sodipodi:nodetypes="cccc" />
    <path
       inkscape:connector-curvature="0"
       style="opacity:1;fill:none;fill-opacity:1;stroke:#000000;stroke-width:47.36749268;stroke-linecap:round;stroke-linejoin:round;stroke-miterlimit:4;stroke-dasharray:none;stroke-opacity:1;paint-order:stroke fill markers"
       clip-path="url(#clipPath6319)"
       d="m 719.9211,251.41022 c 53.53674,-46.32415 118.73891,-77.63211 194.36462,-77.63211 231.95948,0 380.00008,291.09462 380.00008,410.06251 v 0 c 0,118.96789 -166.3263,3.59497 -398.28583,3.59497 -69.05304,0 -127.79513,10.52966 -176.24567,22.1811"
       id="path6343"
       transform="translate(40)" />
    <path
       inkscape:connector-curvature="0"
       style="opacity:1;fill:none;fill-opacity:1;stroke:#000000;stroke-width:47.36749268;stroke-linecap:round;stroke-linejoin:round;stroke-miterlimit:4;stroke-dasharray:none;stroke-opacity:1;paint-order:stroke fill markers"
       clip-path="url(#clipPath6319)"
       d="m 679.94987,290.97492 c 12.49404,-14.03624 25.82542,-27.32465 39.97123,-39.5647"
       id="path6341"
       transform="translate(40)" />
    <path
       inkscape:connector-curvature="0"
       style="opacity:1;fill:none;fill-opacity:1;stroke:#000000;stroke-width:47.36749268;stroke-linecap:round;stroke-linejoin:round;stroke-miterlimit:4;stroke-dasharray:none;stroke-opacity:1;paint-order:stroke fill markers"
       clip-path="url(#clipPath6319)"
       d="m 679.58172,619.9742 c -87.49232,23.72936 -131.1531,40.41861 -131.1531,-32.69098 0,-69.93226 46.26668,-200.53036 131.52125,-296.3083"
       id="path6339"
       transform="translate(40)" />
    <path
       inkscape:connector-curvature="0"
       style="opacity:1;fill:none;fill-opacity:1;stroke:#000000;stroke-width:47.36749268;stroke-linecap:round;stroke-linejoin:round;stroke-miterlimit:4;stroke-dasharray:none;stroke-opacity:1;paint-order:stroke fill markers"
       clip-path="url(#clipPath6319)"
       d="m 719.7543,609.61669 c -14.28537,3.43537 -27.67606,6.96825 -40.17258,10.35751"
       id="path6315"
       transform="translate(40)" />
    <path
       style="fill:#0f0707;fill-opacity:1;stroke:#000000;stroke-width:1px;stroke-linecap:butt;stroke-linejoin:miter;stroke-opacity:1"
       d="m 960,180 c -13.10104,0 -25.17829,-0.0326 -39.46856,1.33614 L 920,600 h 80 V 181.51523 C 988.18342,180.54961 970.95178,180 960,180 Z M 1068.8711,192.61328 1040,600 h 70.8555 l 45.9726,-382.63867 c -27.7049,-9.93701 -57.8247,-18.39946 -87.957,-24.74805 z m -224.70704,1.50195 c -27.79535,6.15719 -55.4222,14.07485 -80.99218,23.2461 L 809.14453,600 H 880 Z M 715.32812,237.23242 C 676.0163,256.21224 647.29858,278.10426 640,300 c -20,60 40,300 40,300 h 78.91211 z m 489.34378,0 L 1161.0879,600 H 1240 c 0,0 60,-240 40,-300 -7.2986,-21.89574 -36.0163,-43.78776 -75.3281,-62.76758 z"
       id="path6347"
       inkscape:connector-curvature="0"
       sodipodi:nodetypes="sccccscccccccccccsccccccsc" />
  </g>
</svg>
