<?xml version="1.0" encoding="UTF-8" standalone="no"?>
<!-- Created with Inkscape (http://www.inkscape.org/) -->

<svg
   xmlns:dc="http://purl.org/dc/elements/1.1/"
   xmlns:cc="http://creativecommons.org/ns#"
   xmlns:rdf="http://www.w3.org/1999/02/22-rdf-syntax-ns#"
   xmlns:svg="http://www.w3.org/2000/svg"
   xmlns="http://www.w3.org/2000/svg"
   xmlns:sodipodi="http://sodipodi.sourceforge.net/DTD/sodipodi-0.dtd"
   xmlns:inkscape="http://www.inkscape.org/namespaces/inkscape"
   width="1920px"
   height="1080px"
   viewBox="0 0 1920 1080"
   version="1.1"
   id="SVGRoot"
   inkscape:version="0.92.1 r15371"
   sodipodi:docname="orange.svg">
  <sodipodi:namedview
     id="base"
     pagecolor="#ffffff"
     bordercolor="#666666"
     borderopacity="1.0"
     inkscape:pageopacity="0.0"
     inkscape:pageshadow="2"
     inkscape:zoom="0.175"
     inkscape:cx="1944.3742"
     inkscape:cy="97.621009"
     inkscape:document-units="px"
     inkscape:current-layer="layer1"
     showgrid="true"
     inkscape:window-width="1366"
     inkscape:window-height="715"
     inkscape:window-x="-8"
     inkscape:window-y="-8"
     inkscape:window-maximized="1"
     inkscape:snap-object-midpoints="true"
     inkscape:snap-center="true"
     inkscape:snap-nodes="false">
    <inkscape:grid
       type="xygrid"
       id="grid5631" />
  </sodipodi:namedview>
  <defs
     id="defs5072" />
  <metadata
     id="metadata5075">
    <rdf:RDF>
      <cc:Work
         rdf:about="">
        <dc:format>image/svg+xml</dc:format>
        <dc:type
           rdf:resource="http://purl.org/dc/dcmitype/StillImage" />
        <dc:title></dc:title>
      </cc:Work>
    </rdf:RDF>
  </metadata>
  <g
     id="layer1"
     inkscape:groupmode="layer"
     inkscape:label="Layer 1">
    <g
       id="g5744"
       transform="matrix(0.72222222,0,0,0.72222222,208.88889,173.33333)">
      <g
         style="stroke-width:100;stroke-miterlimit:4;stroke-dasharray:none"
         transform="matrix(0.5,0,0,0.5,540,220)"
         id="g5736">
        <path
           sodipodi:nodetypes="ssssssssscccccccccccc"
           id="path5727"
           style="opacity:1;fill:none;fill-opacity:1;stroke:#000000;stroke-width:100;stroke-linecap:square;stroke-linejoin:bevel;stroke-miterlimit:4;stroke-dasharray:none;stroke-opacity:1;paint-order:markers stroke fill"
           d="m 1600,520 c 0,159.12989 -63.2141,311.74224 -175.7359,424.26407 C 1311.7422,1056.7859 1159.1299,1120 1000,1120 840.87011,1120 688.25776,1056.7859 575.73593,944.26407 463.2141,831.74224 400,679.12989 400,520 400,360.87011 463.2141,208.25776 575.73593,95.735931 688.25776,-16.785896 840.87011,-80 1000,-80 c 159.1299,0 311.7422,63.214104 424.2641,175.735931 C 1536.7859,208.25776 1600,360.87011 1600,520 Z m -80,520 -200,-200 M 680,200 480,0 v 0 0 m 0,1040 200,-200 M 1320,200 1520,0 v 0 0"
           inkscape:connector-curvature="0" />
        <path
           sodipodi:nodetypes="cccc"
           style="fill:none;stroke:#000000;stroke-width:60;stroke-linecap:butt;stroke-linejoin:miter;stroke-miterlimit:4;stroke-dasharray:none;stroke-opacity:1"
           d="m 560,-200 440,440 400,-440 v 0"
           id="path5731"
           inkscape:connector-curvature="0" />
      </g>
      <circle
         r="520"
         cy="480"
         cx="1040"
         id="path5738"
         style="opacity:1;fill:none;fill-opacity:1;stroke:#000000;stroke-width:40;stroke-linecap:square;stroke-linejoin:bevel;stroke-miterlimit:4;stroke-dasharray:none;stroke-opacity:1;paint-order:markers stroke fill" />
    </g>
  </g>
</svg>
